<?xml version="1.0" encoding="utf-8"?>
<!-- Generator: Adobe Illustrator 16.0.0, SVG Export Plug-In . SVG Version: 6.00 Build 0)  -->
<!DOCTYPE svg PUBLIC "-//W3C//DTD SVG 1.1//EN" "http://www.w3.org/Graphics/SVG/1.1/DTD/svg11.dtd">
<svg version="1.1" id="Layer_1" xmlns="http://www.w3.org/2000/svg" xmlns:xlink="http://www.w3.org/1999/xlink" x="0px" y="0px"
	 width="512px" height="512px" viewBox="0 0 512 512" enable-background="new 0 0 512 512" xml:space="preserve">
<g>
	<g>
		<path d="M296.889,359.059c-12.475,4.922-26.041,7.656-40.245,7.656c-60.654,0-110-49.344-110-110c0-60.654,49.346-110,110-110
			c60.653,0,110.001,49.346,110.001,109.998c0,14.205-2.734,27.775-7.66,40.251l30.129,30.129
			c11.176-20.992,17.531-44.938,17.531-70.378c0-82.844-67.16-150-150.001-150c-82.842,0-150,67.156-150,150
			c0,82.843,67.158,150,150,150c25.438,0,49.384-6.352,70.376-17.527L296.889,359.059z"/>
		<path d="M378.238,344.5l-28.812-28.809c-8.666,13.586-20.223,25.145-33.809,33.809l28.812,28.812
			C357.422,368.914,368.842,357.496,378.238,344.5z"/>
	</g>
	
		<rect x="290.165" y="322.935" transform="matrix(-0.7071 -0.7071 0.7071 -0.7071 346.7287 837.2984)" width="113.206" height="47.814"/>
</g>
</svg>
